<svg viewBox="0 0 28 28" fill="none" xmlns="http://www.w3.org/2000/svg">
<path fill-rule="evenodd" clip-rule="evenodd" d="M6.43062 3.02344C8.65629 1.4888 11.2959 0.666992 13.9994 0.666992C16.7028 0.666992 19.3424 1.4888 21.5681 3.02344C23.7938 4.55808 25.5003 6.73303 26.4615 9.25986C27.4227 11.7867 27.5931 14.546 26.95 17.1719C26.3114 19.7796 24.9005 22.1333 22.9027 23.9255C22.8776 23.9496 22.8515 23.9729 22.8242 23.9954C20.3906 26.1495 17.2513 27.3374 14.0001 27.3333C10.7358 27.3378 7.5842 26.1406 5.14625 23.9703C5.13909 23.9641 5.13201 23.9578 5.12502 23.9514C3.11182 22.156 1.69041 19.7922 1.04871 17.1719C0.40565 14.546 0.576003 11.7867 1.53718 9.25986C2.49836 6.73303 4.20494 4.55808 6.43062 3.02344ZM5.95956 21.0103C6.82956 20.134 7.8396 19.4035 8.95138 18.8506C10.5199 18.0705 12.2482 17.6652 14 17.6666C15.7518 17.6652 17.4801 18.0705 19.0487 18.8506C20.1601 19.4033 21.1699 20.1336 22.0398 21.0096C23.1548 19.7305 23.9531 18.1984 24.3599 16.5376C24.8743 14.4369 24.738 12.2294 23.9691 10.2079C23.2001 8.18649 21.8349 6.44653 20.0543 5.21882C18.2738 3.99111 16.1621 3.33366 13.9994 3.33366C11.8366 3.33366 9.7249 3.99111 7.94436 5.21882C6.16383 6.44653 4.79856 8.18649 4.02961 10.2079C3.26067 12.2294 3.12439 14.4369 3.63884 16.5376C4.04565 18.1987 4.84416 19.731 5.95956 21.0103ZM20.047 22.789C18.2783 24.0088 16.1712 24.6697 14.0019 24.6666H13.998C11.8286 24.6699 9.72137 24.0092 7.95245 22.7895C8.59432 22.1638 9.33148 21.6398 10.1388 21.2383C11.3381 20.6419 12.6594 20.332 13.9988 20.3333H14.0012C15.3406 20.332 16.662 20.6419 17.8612 21.2383C18.6683 21.6397 19.4053 22.1635 20.047 22.789ZM14 17.6666C14.0004 17.6666 14.0008 17.6666 14.0012 17.6666L14 18.9999L13.9988 17.6666C13.9992 17.6666 13.9996 17.6666 14 17.6666ZM14 8.33327C13.2928 8.33327 12.6145 8.61422 12.1144 9.11431C11.6143 9.61441 11.3334 10.2927 11.3334 10.9999C11.3334 11.7072 11.6143 12.3855 12.1144 12.8856C12.6145 13.3856 13.2928 13.6666 14 13.6666C14.7073 13.6666 15.3855 13.3856 15.8856 12.8856C16.3857 12.3855 16.6667 11.7072 16.6667 10.9999C16.6667 10.2927 16.3857 9.61441 15.8856 9.11431C15.3855 8.61422 14.7073 8.33327 14 8.33327ZM10.2288 7.2287C11.229 6.2285 12.5855 5.6666 14 5.6666C15.4145 5.6666 16.7711 6.2285 17.7713 7.2287C18.7715 8.22889 19.3334 9.58544 19.3334 10.9999C19.3334 12.4144 18.7715 13.771 17.7713 14.7712C16.7711 15.7714 15.4145 16.3333 14 16.3333C12.5855 16.3333 11.229 15.7714 10.2288 14.7712C9.22859 13.771 8.66669 12.4144 8.66669 10.9999C8.66669 9.58544 9.22859 8.22889 10.2288 7.2287Z" fill="currentColor"/>
</svg>
