<svg viewBox="0 0 108 32" fill="none" xmlns="http://www.w3.org/2000/svg">
<path fill-rule="evenodd" clip-rule="evenodd" d="M48.2286 11.8325L53.223 11.3075L52.8925 12.5692L49.1952 12.9578L45.4805 27.1375L39.936 27.7203L40.2665 26.4586L44.5139 26.0122L48.2286 11.8325ZM85.2863 21.7269L91.4607 8.47918L92.6629 8.60354L86.0101 22.8777L77.3413 23.7888L77.6718 22.5272L85.2863 21.7269ZM104.186 12.9881C104.718 10.9411 104.541 9.63274 103.829 8.90119L104.95 7.87961C105.949 8.90706 106.066 10.629 105.476 12.8814L105.468 12.9114L104.443 15.7889L95.5188 16.7268L95.8494 15.4652L103.594 14.6512L104.186 12.9881ZM10.2752 19.3079L11.7985 19.1478L14.2766 29.1903L18.7219 28.7231L20.9291 20.2976L22.2262 20.1613L19.6885 29.8484L13.1316 30.5375L10.931 21.6194L8.46621 31.0279L2.27315 31.6788L4.81091 21.9917L6.10798 21.8554L3.90074 30.2808L7.49965 29.9026L10.2752 19.3079ZM60.3294 15.4551C60.862 15.2501 61.3564 15.1003 61.808 15.0131L61.602 16.2561C61.2648 16.3212 60.869 16.4385 60.4099 16.6152C59.9374 16.7971 59.4794 16.9935 59.0357 17.2042C58.7603 17.3393 58.5043 17.4657 58.2677 17.5833L56.0559 26.026L50.0554 26.6567L51.9834 19.2972L53.2805 19.1609L51.683 25.2587L55.0894 24.9007L57.1807 16.9176L57.5978 16.708C57.9504 16.5308 58.353 16.3312 58.8053 16.1094L58.8108 16.1067L58.8162 16.1042C59.3078 15.8705 59.8123 15.6542 60.3294 15.4551ZM16.1975 22.5921L15.7574 22.6384L16.088 21.3768L16.5281 21.3305L16.1975 22.5921ZM91.8966 15.2973C91.5031 16.7992 91.3847 17.9779 91.5078 18.8595C91.6438 19.7031 92.0611 20.2815 92.7603 20.6222C93.4775 20.9514 94.583 21.0619 96.1379 20.8985C96.8498 20.8237 97.6094 20.7102 98.417 20.5574C99.2308 20.4035 100.011 20.2361 100.759 20.0554C101.247 19.9375 101.678 19.8294 102.054 19.7311L102.626 17.2089L103.934 17.0288L103.116 20.6314L102.544 20.7906C102.032 20.9334 101.391 21.0975 100.624 21.2828C99.8489 21.4703 99.0424 21.6432 98.2052 21.8016C97.3618 21.9611 96.5623 22.0808 95.8073 22.1602C94.1376 22.3357 92.8032 22.2352 91.8655 21.803L91.8618 21.8013L91.8581 21.7995C90.9154 21.342 90.356 20.5509 90.1806 19.4537L90.18 19.4495L90.1794 19.4452C90.0293 18.3787 90.1806 17.0327 90.5995 15.4336L91.8966 15.2973ZM22.8333 24.9497C22.4655 26.3535 22.5886 27.223 23.0378 27.7102C23.4949 28.2059 24.3801 28.4406 25.849 28.2862C26.3753 28.2309 26.9049 28.1271 27.4385 27.9749C27.9909 27.8174 28.4985 27.6492 28.9624 27.4711C29.4474 27.2687 29.8251 27.0986 30.1024 26.9601L30.5892 26.7168L30.8195 27.0302C30.8862 27.121 31.0379 27.2458 31.3246 27.3902C31.5511 27.4865 31.886 27.5328 32.3623 27.4979L32.3942 27.4955L32.4251 27.4963C32.6271 27.5015 32.9591 27.4701 33.4477 27.3851L33.4599 27.383L33.4719 27.3813C33.9548 27.3138 34.4125 27.2323 34.8452 27.1373L34.6781 28.3722C34.2062 28.4759 33.714 28.5635 33.2017 28.6354C32.7033 28.7216 32.2809 28.7701 31.958 28.7655C31.363 28.8061 30.8459 28.7531 30.4395 28.5756L30.4296 28.5712L30.42 28.5665C30.229 28.4709 30.0566 28.3679 29.9123 28.2548C29.6662 28.3673 29.3878 28.4881 29.0787 28.617L29.0668 28.622L29.0548 28.6266C28.5303 28.8285 27.9679 29.0145 27.3688 29.1853C26.746 29.3629 26.1291 29.4837 25.5185 29.5478C23.87 29.7211 22.6134 29.4871 21.9039 28.7178C21.1867 27.94 21.119 26.6788 21.5362 25.0861L22.8333 24.9497ZM61.889 20.8448C61.5212 22.2485 61.6443 23.1181 62.0935 23.6053C62.5506 24.1009 63.4358 24.3357 64.9047 24.1813C65.431 24.126 65.9606 24.0221 66.4942 23.87C67.0466 23.7125 67.5542 23.5443 68.0181 23.3662C68.5031 23.1637 68.8808 22.9937 69.1581 22.8551L69.645 22.6119L69.8752 22.9253C69.9419 23.0161 70.0937 23.1408 70.3803 23.2853C70.6069 23.3816 70.9417 23.4279 71.418 23.393L71.4499 23.3906L71.4808 23.3914C71.6828 23.3965 72.0148 23.3652 72.5034 23.2802L72.5156 23.2781L72.5276 23.2764C73.0105 23.2089 73.4682 23.1274 73.9008 23.0323L73.7338 24.2673C73.2619 24.371 72.7697 24.4585 72.2574 24.5305C71.759 24.6167 71.3366 24.6651 71.0137 24.6606C70.4187 24.7012 69.9016 24.6482 69.4952 24.4707L69.4853 24.4663L69.4757 24.4615C69.2847 24.366 69.1123 24.263 68.968 24.1499C68.7219 24.2624 68.4435 24.3832 68.1344 24.5121L68.1225 24.5171L68.1105 24.5217C67.586 24.7236 67.0237 24.9096 66.4245 25.0804C65.8017 25.258 65.1848 25.3787 64.5742 25.4429C62.9257 25.6162 61.6691 25.3822 60.9596 24.6129C60.2424 23.8351 60.1747 22.5739 60.5919 20.9811L61.889 20.8448Z" fill="#AF053F"/>
<path d="M0.705077 28.598L5.45007 10.4854L10.9512 9.90722L13.5408 19.6258L13.9809 19.5795L16.6723 9.30591L21.5683 8.79132L16.8233 26.9039L11.3222 27.4821L8.84416 17.4396L8.37657 17.4888L5.60106 28.0834L0.705077 28.598Z" fill="#F4F6FF"/>
<path d="M23.3019 26.5352C21.7432 26.699 20.6723 26.4647 20.089 25.8322C19.5058 25.1997 19.4104 24.1343 19.8029 22.6361C20.0832 21.5659 20.4999 20.7243 21.0528 20.1111C21.6241 19.496 22.3343 19.0311 23.1836 18.7164C24.0328 18.4016 25.0146 18.1597 26.1288 17.9905L28.9559 17.5113L29.1101 16.9227C29.2269 16.4768 29.162 16.18 28.9153 16.0325C28.687 15.8831 28.3161 15.8353 27.8027 15.8893C27.2526 15.9471 26.6244 16.0305 25.9183 16.1394C25.2121 16.2483 24.522 16.3642 23.8478 16.4871C23.1737 16.61 22.582 16.7242 22.0729 16.8297L22.7695 13.6604C23.3156 13.4816 23.9534 13.2932 24.6829 13.0951C25.4308 12.8951 26.1991 12.7189 26.988 12.5666C27.7815 12.3965 28.5175 12.2758 29.196 12.2045C30.4246 12.0753 31.4439 12.0983 32.254 12.2733C33.0824 12.4464 33.6394 12.8389 33.9249 13.4506C34.2288 14.0604 34.2242 14.9629 33.9111 16.1579L32.4253 21.8298C32.4382 21.9845 32.5224 22.1058 32.6777 22.1935C32.8514 22.2793 33.0436 22.3285 33.2543 22.341L32.3797 25.3729C31.9256 25.4727 31.4487 25.5575 30.9489 25.6274C30.4445 25.7151 30.0594 25.7556 29.7937 25.7488C29.2483 25.7888 28.8155 25.7389 28.4955 25.5991C28.1802 25.4414 27.9633 25.2821 27.845 25.1211C27.5373 25.2748 27.1332 25.4561 26.6327 25.6648C26.1369 25.8556 25.5999 26.0335 25.0217 26.1983C24.4436 26.3632 23.8703 26.4755 23.3019 26.5352ZM25.3672 23.144C25.6422 23.1151 25.9151 23.0604 26.1859 22.9799C26.4796 22.8796 26.7574 22.7724 27.0191 22.6582C27.2992 22.542 27.5219 22.4405 27.6873 22.3538L28.262 20.1599L26.2051 20.5582C25.7556 20.6402 25.3905 20.8086 25.1097 21.0636C24.852 21.2989 24.6717 21.6127 24.5689 22.0051C24.4661 22.3975 24.476 22.7 24.5986 22.9126C24.7259 23.1073 24.9821 23.1845 25.3672 23.144Z" fill="#F4F6FF"/>
<path d="M37.7194 24.7077L41.434 10.5279L36.9231 11.002L37.9534 7.06917L51.7062 5.6237L50.6759 9.55657L46.33 10.0133L42.6153 24.1931L37.7194 24.7077Z" fill="#F4F6FF"/>
<path d="M48.4873 23.5759L52.0128 10.1185L56.7162 9.62418L56.3378 11.0689C56.6919 10.8062 57.1034 10.5288 57.5722 10.2367C58.0641 9.92481 58.5649 9.64669 59.0747 9.40231C59.5845 9.15793 60.0482 8.98778 60.4656 8.89188L59.3231 13.2528C58.9287 13.329 58.4836 13.4625 57.9878 13.6533C57.492 13.8442 57.0099 14.051 56.5414 14.2737C56.0912 14.4944 55.6916 14.6925 55.3425 14.868L53.1908 23.0815L48.4873 23.5759Z" fill="#F4F6FF"/>
<path d="M62.3576 22.4303C60.7989 22.5941 59.728 22.3598 59.1447 21.7273C58.5615 21.0948 58.4661 20.0294 58.8586 18.5312C59.1389 17.461 59.5556 16.6193 60.1085 16.0062C60.6798 15.3911 61.39 14.9262 62.2393 14.6114C63.0885 14.2967 64.0703 14.0548 65.1845 13.8856L68.0116 13.4063L68.1658 12.8177C68.2826 12.3718 68.2177 12.0751 67.971 11.9276C67.7427 11.7782 67.3718 11.7304 66.8584 11.7844C66.3083 11.8422 65.6801 11.9256 64.974 12.0345C64.2678 12.1434 63.5777 12.2593 62.9035 12.3822C62.2294 12.5051 61.6377 12.6193 61.1286 12.7248L61.8252 9.55552C62.3713 9.37671 63.0091 9.18825 63.7386 8.99016C64.4865 8.79014 65.2548 8.61399 66.0437 8.4617C66.8372 8.29157 67.5732 8.17085 68.2517 8.09954C69.4803 7.97041 70.4996 7.99337 71.3097 8.1684C72.1381 8.3415 72.6951 8.73393 72.9806 9.34569C73.2845 9.95551 73.2799 10.8579 72.9668 12.053L71.481 17.7249C71.4939 17.8796 71.5781 18.0008 71.7334 18.0886C71.9071 18.1744 72.0993 18.2236 72.31 18.2361L71.4354 21.268C70.9813 21.3678 70.5044 21.4526 70.0046 21.5225C69.5002 21.6102 69.1151 21.6507 68.8494 21.6439C68.304 21.6839 67.8712 21.634 67.5512 21.4942C67.2359 21.3365 67.0191 21.1772 66.9007 21.0162C66.593 21.1699 66.1889 21.3511 65.6884 21.5599C65.1926 21.7507 64.6556 21.9286 64.0775 22.0934C63.4993 22.2583 62.926 22.3705 62.3576 22.4303ZM64.4229 19.0391C64.6979 19.0102 64.9708 18.9555 65.2416 18.875C65.5353 18.7747 65.8131 18.6675 66.0748 18.5532C66.3549 18.4371 66.5776 18.3356 66.743 18.2489L67.3177 16.055L65.2608 16.4533C64.8113 16.5353 64.4462 16.7037 64.1654 16.9587C63.9077 17.1939 63.7274 17.5078 63.6246 17.9002C63.5218 18.2926 63.5317 18.595 63.6543 18.8076C63.7816 19.0024 64.0378 19.0795 64.4229 19.0391Z" fill="#F4F6FF"/>
<path d="M75.1247 20.7762L75.7621 7.62238L80.7956 7.09333L80.0398 16.5131L80.6449 16.4495L84.9214 6.65969L89.6799 6.15956L83.2664 19.9205L75.1247 20.7762Z" fill="#F4F6FF"/>
<path d="M93.5907 19.1476C91.9771 19.3172 90.7566 19.2113 89.9292 18.8299C89.1065 18.4307 88.6175 17.745 88.462 16.7726C88.325 15.7984 88.4597 14.5354 88.8662 12.9836C89.2914 11.3605 89.8826 9.98885 90.6397 8.86858C91.4151 7.74637 92.368 6.86569 93.4984 6.22653C94.6288 5.58737 95.955 5.18781 97.4769 5.02784C99.6591 4.79849 101.169 5.12541 102.008 6.0086C102.865 6.88986 103.011 8.40958 102.445 10.5677L101.636 12.8382L93.3022 13.7142C93.1337 14.4257 93.1585 14.9434 93.3768 15.2674C93.5998 15.5735 94.0963 15.6861 94.8665 15.6052C95.4533 15.5435 96.1066 15.4662 96.8264 15.3732C97.5692 15.2604 98.3029 15.1486 99.0273 15.0378C99.7702 14.925 100.394 14.8248 100.898 14.737L100.202 17.8022C99.7021 17.9415 99.0713 18.1032 98.3098 18.2873C97.5483 18.4714 96.7548 18.6415 95.9292 18.7977C95.1037 18.9538 94.3242 19.0705 93.5907 19.1476ZM93.9826 11.0149L97.8334 10.6102C98.0717 9.70053 98.0909 9.08276 97.891 8.75687C97.6957 8.41315 97.268 8.27598 96.6078 8.34536C95.9294 8.41668 95.3829 8.66491 94.9683 9.09007C94.5585 9.49739 94.2299 10.139 93.9826 11.0149Z" fill="#F4F6FF"/>
</svg>
