<svg width="162" height="48" viewBox="0 0 162 48" fill="none" xmlns="http://www.w3.org/2000/svg">
<path fill-rule="evenodd" clip-rule="evenodd" d="M72.3433 17.7491L79.8348 16.9617L79.3391 18.8541L73.7931 19.437L68.2211 40.7065L59.9043 41.5806L60.4001 39.6882L66.7712 39.0185L72.3433 17.7491ZM127.929 32.5905L137.191 12.7192L138.994 12.9057L129.015 34.3168L116.012 35.6835L116.508 33.791L127.929 32.5905ZM156.279 19.4825C157.076 16.4121 156.811 14.4495 155.744 13.3522L157.425 11.8198C158.924 13.361 159.098 15.9439 158.213 19.3224L158.201 19.3674L156.664 23.6836L143.278 25.0905L143.774 23.1981L155.391 21.9771L156.279 19.4825ZM15.4134 28.9621L17.6985 28.722L21.4155 43.7856L28.0835 43.0848L31.3943 30.4466L33.3399 30.2422L29.5333 44.7727L19.6981 45.8065L16.3972 32.4293L12.7 46.542L3.4105 47.5184L7.21711 32.9878L9.1627 32.7833L5.85186 45.4214L11.2502 44.854L15.4134 28.9621ZM90.4943 23.183C91.2932 22.8754 92.0348 22.6507 92.7122 22.52L92.4032 24.3845C91.8974 24.4821 91.3036 24.658 90.6151 24.9231C89.9063 25.1959 89.2193 25.4906 88.5538 25.8066C88.1406 26.0093 87.7566 26.1988 87.4017 26.3753L84.0841 39.0392L75.0834 39.9852L77.9754 28.946L79.921 28.7416L77.5248 37.8883L82.6343 37.3513L85.7713 25.3768L86.3969 25.0624C86.9259 24.7965 87.5298 24.4971 88.2082 24.1644L88.2164 24.1604L88.2245 24.1565C88.9619 23.806 89.7186 23.4816 90.4943 23.183ZM24.2969 33.8885L23.6368 33.9578L24.1326 32.0654L24.7927 31.996L24.2969 33.8885ZM137.845 22.9462C137.255 25.1992 137.077 26.9671 137.262 28.2895C137.466 29.555 138.091 30.4226 139.14 30.9335C140.216 31.4273 141.874 31.5932 144.207 31.3481C145.275 31.2358 146.414 31.0655 147.625 30.8364C148.846 30.6055 150.017 30.3544 151.138 30.0833C151.87 29.9065 152.517 29.7443 153.08 29.5969L153.939 25.8136L155.901 25.5435L154.674 30.9474L153.816 31.1862C153.047 31.4004 152.086 31.6466 150.936 31.9245C149.773 32.2058 148.563 32.4651 147.308 32.7026C146.043 32.9419 144.843 33.1215 143.711 33.2405C141.206 33.5038 139.205 33.353 137.798 32.7047L137.793 32.7021L137.787 32.6994C136.373 32.0133 135.534 30.8266 135.271 29.1808L135.27 29.1745L135.269 29.168C135.044 27.5684 135.271 25.5494 135.899 23.1507L137.845 22.9462ZM34.2505 37.4248C33.6989 39.5304 33.8834 40.8347 34.5573 41.5655C35.2429 42.309 36.5707 42.661 38.774 42.4295C39.5635 42.3465 40.3579 42.1908 41.1582 41.9626C41.9868 41.7264 42.7483 41.474 43.4441 41.2069C44.1716 40.9032 44.7382 40.6481 45.1541 40.4403L45.8844 40.0754L46.2298 40.5455C46.3298 40.6817 46.5574 40.8688 46.9873 41.0855C47.3272 41.2299 47.8295 41.2994 48.544 41.247L48.5918 41.2435L48.6381 41.2447C48.9411 41.2524 49.4391 41.2053 50.172 41.0779L50.1903 41.0747L50.2084 41.0722C50.9327 40.9709 51.6191 40.8487 52.2682 40.7061L52.0176 42.5586C51.3098 42.714 50.5715 42.8454 49.803 42.9533C49.0555 43.0826 48.4219 43.1553 47.9374 43.1485C47.045 43.2094 46.2693 43.1299 45.6598 42.8636L45.6449 42.857L45.6306 42.8499C45.344 42.7066 45.0854 42.5521 44.869 42.3824C44.4998 42.5512 44.0822 42.7324 43.6186 42.9257L43.6007 42.9332L43.5827 42.9401C42.796 43.243 41.9524 43.5219 41.0537 43.7782C40.1196 44.0445 39.1941 44.2257 38.2782 44.3219C35.8056 44.5818 33.9206 44.2309 32.8565 43.0769C31.7806 41.9102 31.679 40.0184 32.3049 37.6293L34.2505 37.4248ZM92.8337 31.2675C92.2821 33.373 92.4666 34.6774 93.1405 35.4081C93.8261 36.1516 95.1539 36.5037 97.3572 36.2721C98.1466 36.1892 98.9411 36.0334 99.7414 35.8053C100.57 35.569 101.331 35.3167 102.027 35.0495C102.755 34.7459 103.321 34.4908 103.737 34.2829L104.468 33.9181L104.813 34.3882C104.913 34.5244 105.141 34.7115 105.571 34.9281C105.91 35.0726 106.413 35.1421 107.127 35.0897L107.175 35.0862L107.221 35.0873C107.524 35.0951 108.022 35.048 108.755 34.9206L108.773 34.9174L108.792 34.9149C109.516 34.8136 110.202 34.6913 110.851 34.5487L110.601 36.4012C109.893 36.5567 109.155 36.688 108.386 36.7959C107.639 36.9253 107.005 36.9979 106.521 36.9912C105.628 37.052 104.852 36.9725 104.243 36.7062L104.228 36.6997L104.214 36.6925C103.927 36.5492 103.669 36.3948 103.452 36.225C103.083 36.3938 102.665 36.575 102.202 36.7684L102.184 36.7758L102.166 36.7828C101.379 37.0856 100.536 37.3646 99.6368 37.6208C98.7027 37.8872 97.7773 38.0683 96.8614 38.1646C94.3888 38.4245 92.5038 38.0735 91.4397 36.9196C90.3638 35.7528 90.2622 33.8611 90.8881 31.472L92.8337 31.2675Z" fill="#BB2E57"/>
<path d="M1.05809 42.897L8.17554 15.7283L16.4271 14.861L20.3116 29.4387L20.9717 29.3693L25.0088 13.959L32.3527 13.1871L25.2353 40.3559L16.9837 41.2232L13.2666 26.1595L12.5653 26.2332L8.40202 42.1251L1.05809 42.897Z" fill="#300219"/>
<path d="M34.953 39.8028C32.6151 40.0485 31.0087 39.697 30.1338 38.7483C29.2589 37.7995 29.1159 36.2015 29.7046 33.9542C30.1251 32.3489 30.7501 31.0864 31.5795 30.1667C32.4364 29.2441 33.5018 28.5467 34.7756 28.0746C36.0495 27.6025 37.5221 27.2396 39.1934 26.9859L43.4341 26.267L43.6654 25.3841C43.8406 24.7152 43.7432 24.2702 43.3732 24.0489C43.0307 23.8247 42.4744 23.7531 41.7042 23.834C40.8791 23.9208 39.9369 24.0458 38.8777 24.2092C37.8184 24.3725 36.7832 24.5464 35.772 24.7307C34.7608 24.9151 33.8733 25.0864 33.1097 25.2447L34.1544 20.4908C34.9736 20.2226 35.9304 19.9399 37.0247 19.6427C38.1464 19.3427 39.2989 19.0785 40.4822 18.8501C41.6725 18.5949 42.7765 18.4138 43.7941 18.3068C45.637 18.1131 47.166 18.1476 48.3811 18.4101C49.6238 18.6698 50.4592 19.2584 50.8875 20.176C51.3433 21.0908 51.3365 22.4444 50.8669 24.2369L48.6381 32.7447C48.6575 32.9768 48.7837 33.1587 49.0167 33.2903C49.2772 33.419 49.5655 33.4928 49.8815 33.5116L48.5698 38.0594C47.8886 38.2091 47.1732 38.3363 46.4236 38.4411C45.6669 38.5727 45.0893 38.6334 44.6907 38.6232C43.8726 38.6832 43.2235 38.6083 42.7435 38.3986C42.2705 38.1621 41.9452 37.9231 41.7678 37.6816C41.3061 37.9123 40.7 38.1841 39.9492 38.4972C39.2055 38.7835 38.4001 39.0502 37.5329 39.2975C36.6656 39.5448 35.8057 39.7132 34.953 39.8028ZM38.051 34.716C38.4636 34.6727 38.8729 34.5906 39.279 34.4699C39.7196 34.3195 40.1363 34.1586 40.5289 33.9873C40.949 33.813 41.2831 33.6608 41.5312 33.5307L42.3933 30.2399L39.3078 30.8374C38.6337 30.9603 38.086 31.213 37.6648 31.5955C37.2782 31.9483 37.0077 32.4191 36.8535 33.0077C36.6994 33.5962 36.7142 34.05 36.8982 34.3689C37.0891 34.661 37.4734 34.7767 38.051 34.716Z" fill="#300219"/>
<path d="M56.5791 37.0615L62.1511 15.792L55.3848 16.5032L56.9303 10.6039L77.5593 8.43574L76.0139 14.335L69.4951 15.0202L63.9231 36.2896L56.5791 37.0615Z" fill="#300219"/>
<path d="M72.731 35.3639L78.0192 15.1779L85.0743 14.4364L84.5066 16.6035C85.0378 16.2094 85.655 15.7933 86.3582 15.3552C87.096 14.8874 87.8472 14.4702 88.612 14.1036C89.3767 13.7371 90.0721 13.4818 90.6983 13.338L88.9846 19.8793C88.393 19.9936 87.7253 20.1938 86.9816 20.4801C86.2379 20.7664 85.5147 21.0766 84.812 21.4106C84.1368 21.7418 83.5374 22.0389 83.0137 22.3021L79.7861 34.6223L72.731 35.3639Z" fill="#300219"/>
<path d="M93.5362 33.6455C91.1983 33.8912 89.5918 33.5397 88.717 32.591C87.8421 31.6422 87.699 30.0442 88.2878 27.7968C88.7083 26.1916 89.3333 24.9291 90.1627 24.0094C91.0196 23.0867 92.0849 22.3894 93.3588 21.9173C94.6326 21.4452 96.1052 21.0822 97.7766 20.8285L102.017 20.1096L102.249 19.2267C102.424 18.5579 102.326 18.1128 101.956 17.8915C101.614 17.6674 101.058 17.5958 100.287 17.6767C99.4622 17.7634 98.52 17.8885 97.4608 18.0518C96.4016 18.2152 95.3664 18.389 94.3552 18.5734C93.3439 18.7577 92.4565 18.929 91.6928 19.0874L92.7376 14.3334C93.5568 14.0652 94.5136 13.7825 95.6078 13.4854C96.7296 13.1854 97.8821 12.9212 99.0654 12.6927C100.256 12.4375 101.36 12.2565 102.377 12.1495C104.22 11.9558 105.749 11.9902 106.964 12.2528C108.207 12.5124 109.042 13.1011 109.471 14.0187C109.927 14.9334 109.92 16.2871 109.45 18.0796L107.221 26.5874C107.241 26.8195 107.367 27.0013 107.6 27.133C107.86 27.2617 108.149 27.3354 108.465 27.3543L107.153 31.9021C106.472 32.0517 105.756 32.179 105.007 32.2838C104.25 32.4153 103.672 32.476 103.274 32.4659C102.456 32.5259 101.807 32.451 101.327 32.2413C100.854 32.0048 100.528 31.7658 100.351 31.5243C99.8893 31.7549 99.2831 32.0268 98.5324 32.3398C97.7887 32.6261 96.9832 32.8929 96.116 33.1402C95.2488 33.3874 94.3889 33.5559 93.5362 33.6455ZM96.6342 28.5587C97.0468 28.5153 97.4561 28.4333 97.8622 28.3125C98.3028 28.1622 98.7194 28.0013 99.112 27.8299C99.5322 27.6557 99.8663 27.5035 100.114 27.3734L100.976 24.0826L97.891 24.6801C97.2168 24.803 96.6692 25.0557 96.248 25.4382C95.8613 25.791 95.5909 26.2617 95.4367 26.8503C95.2825 27.4389 95.2974 27.8926 95.4813 28.2115C95.6723 28.5037 96.0566 28.6194 96.6342 28.5587Z" fill="#300219"/>
<path d="M112.687 31.1643L113.643 11.4337L121.193 10.6402L120.059 24.7697L120.967 24.6743L127.382 9.98973L134.519 9.23953L124.899 29.8808L112.687 31.1643Z" fill="#300219"/>
<path d="M140.386 28.7214C137.965 28.9758 136.134 28.817 134.893 28.2449C133.659 27.6462 132.926 26.6175 132.693 25.159C132.487 23.6977 132.689 21.8032 133.299 19.4756C133.937 17.0409 134.823 14.9834 135.959 13.303C137.122 11.6197 138.552 10.2987 140.247 9.33999C141.943 8.38126 143.932 7.78192 146.215 7.54197C149.488 7.19795 151.754 7.68832 153.011 9.01309C154.297 10.335 154.515 12.6145 153.667 15.8518L152.454 19.2575L139.953 20.5714C139.7 21.6387 139.737 22.4153 140.065 22.9012C140.399 23.3604 141.144 23.5293 142.299 23.4079C143.179 23.3153 144.159 23.1993 145.239 23.0598C146.353 22.8907 147.454 22.723 148.541 22.5567C149.655 22.3876 150.59 22.2372 151.347 22.1057L150.303 26.7034C149.553 26.9123 148.606 27.1549 147.464 27.431C146.322 27.7072 145.132 27.9624 143.893 28.1966C142.655 28.4308 141.486 28.6058 140.386 28.7214ZM140.974 16.5225L146.75 15.9154C147.107 14.5509 147.136 13.6243 146.836 13.1355C146.543 12.6199 145.901 12.4141 144.911 12.5182C143.894 12.6252 143.074 12.9975 142.452 13.6353C141.837 14.2463 141.344 15.2087 140.974 16.5225Z" fill="#300219"/>
</svg>
