<svg width="107" height="32" viewBox="0 0 107 32" fill="none" xmlns="http://www.w3.org/2000/svg">
<path fill-rule="evenodd" clip-rule="evenodd" d="M47.6075 11.8326L52.6019 11.3077L52.2714 12.5693L48.574 12.9579L44.8594 27.1376L39.3149 27.7203L39.6454 26.4587L43.8928 26.0123L47.6075 11.8326ZM84.665 21.7269L90.8393 8.47935L92.0414 8.60371L85.3887 22.8778L76.72 23.7889L77.0505 22.5273L84.665 21.7269ZM103.565 12.9883C104.096 10.9413 103.919 9.63291 103.208 8.90137L104.329 7.87978C105.328 8.90723 105.444 10.6292 104.854 12.8815L104.846 12.9115L103.821 15.789L94.8974 16.7269L95.2279 15.4653L102.972 14.6513L103.565 12.9883ZM9.65428 19.308L11.1776 19.1479L13.6557 29.1903L18.101 28.7231L20.3082 20.2977L21.6053 20.1614L19.0675 29.8484L12.5107 30.5376L10.3101 21.6194L7.84534 31.0279L1.65233 31.6788L4.19007 21.9918L5.48713 21.8554L3.2799 30.2809L6.87879 29.9026L9.65428 19.308ZM59.7082 15.4552C60.2408 15.2502 60.7352 15.1004 61.1868 15.0132L60.9808 16.2563C60.6436 16.3214 60.2477 16.4386 59.7887 16.6153C59.3162 16.7972 58.8582 16.9936 58.4145 17.2043C58.1391 17.3394 57.8831 17.4658 57.6465 17.5834L55.4348 26.0261L49.4343 26.6567L51.3622 19.2973L52.6593 19.161L51.0619 25.2588L54.4682 24.9008L56.5595 16.9178L56.9766 16.7082C57.3292 16.5309 57.7319 16.3313 58.1841 16.1095L58.1896 16.1069L58.195 16.1043C58.6866 15.8706 59.1911 15.6543 59.7082 15.4552ZM15.5766 22.5922L15.1365 22.6385L15.4671 21.3768L15.9071 21.3306L15.5766 22.5922ZM91.2752 15.2974C90.8817 16.7994 90.7633 17.978 90.8864 18.8596C91.0224 19.7032 91.4396 20.2816 92.1389 20.6223C92.8561 20.9515 93.9616 21.062 95.5164 20.8986C96.2284 20.8238 96.9879 20.7103 97.7955 20.5575C98.6094 20.4036 99.3899 20.2362 100.137 20.0555C100.625 19.9376 101.056 19.8295 101.432 19.7312L102.005 17.209L103.313 17.0289L102.494 20.6315L101.923 20.7907C101.41 20.9335 100.769 21.0976 100.003 21.2829C99.2274 21.4704 98.421 21.6433 97.5838 21.8016C96.7403 21.9612 95.9409 22.0809 95.1859 22.1603C93.5161 22.3358 92.1818 22.2353 91.2441 21.8031L91.2404 21.8013L91.2367 21.7995C90.294 21.3421 89.7346 20.551 89.5592 19.4538L89.5586 19.4496L89.558 19.4453C89.4079 18.3788 89.5592 17.0328 89.9781 15.4337L91.2752 15.2974ZM22.2123 24.9498C21.8446 26.3535 21.9676 27.2231 22.4169 27.7102C22.8739 28.2059 23.7591 28.4406 25.228 28.2862C25.7543 28.2309 26.2839 28.1271 26.8175 27.975C27.3699 27.8175 27.8775 27.6493 28.3414 27.4712C28.8264 27.2687 29.2041 27.0986 29.4814 26.9601L29.9682 26.7169L30.1985 27.0303C30.2652 27.121 30.4169 27.2458 30.7035 27.3902C30.9301 27.4865 31.265 27.5328 31.7413 27.4979L31.7732 27.4956L31.8041 27.4964C32.006 27.5015 32.3381 27.4701 32.8267 27.3852L32.8388 27.3831L32.8509 27.3814C33.3338 27.3139 33.7914 27.2324 34.2241 27.1373L34.057 28.3723C33.5852 28.4759 33.093 28.5635 32.5807 28.6354C32.0823 28.7217 31.6599 28.7701 31.337 28.7656C30.742 28.8062 30.2249 28.7532 29.8185 28.5756L29.8086 28.5713L29.799 28.5665C29.608 28.471 29.4356 28.368 29.2913 28.2548C29.0452 28.3674 28.7668 28.4882 28.4577 28.6171L28.4458 28.622L28.4338 28.6267C27.9093 28.8286 27.347 29.0145 26.7478 29.1854C26.125 29.3629 25.5081 29.4837 24.8975 29.5479C23.2491 29.7211 21.9924 29.4872 21.283 28.7178C20.5657 27.94 20.498 26.6789 20.9153 25.0861L22.2123 24.9498ZM61.2678 20.8449C60.9 22.2486 61.0231 23.1182 61.4723 23.6053C61.9294 24.101 62.8146 24.3357 64.2834 24.1813C64.8098 24.126 65.3394 24.0222 65.8729 23.8701C66.4253 23.7126 66.933 23.5444 67.3969 23.3663C67.8818 23.1638 68.2596 22.9938 68.5368 22.8552L69.0237 22.612L69.254 22.9254C69.3207 23.0162 69.4724 23.1409 69.759 23.2853C69.9856 23.3817 70.3204 23.428 70.7968 23.393L70.8287 23.3907L70.8595 23.3915C71.0615 23.3966 71.3935 23.3652 71.8821 23.2803L71.8943 23.2782L71.9064 23.2765C72.3892 23.209 72.8469 23.1275 73.2796 23.0324L73.1125 24.2674C72.6406 24.3711 72.1484 24.4586 71.6361 24.5305C71.1377 24.6168 70.7154 24.6652 70.3924 24.6607C69.7974 24.7013 69.2803 24.6483 68.874 24.4707L68.8641 24.4664L68.8545 24.4616C68.6634 24.3661 68.491 24.2631 68.3468 24.1499C68.1006 24.2625 67.8223 24.3833 67.5132 24.5122L67.5012 24.5172L67.4893 24.5218C66.9647 24.7237 66.4024 24.9097 65.8032 25.0805C65.1805 25.258 64.5635 25.3788 63.9529 25.443C62.3045 25.6162 61.0478 25.3823 60.3384 24.613C59.6212 23.8351 59.5534 22.574 59.9707 20.9812L61.2678 20.8449Z" fill="#300219"/>
<path d="M0.0841366 28.5981L4.8291 10.4856L10.3302 9.90741L12.9198 19.6259L13.3599 19.5796L16.0513 9.3061L20.9472 8.79151L16.2023 26.904L10.7012 27.4822L8.22317 17.4397L7.75558 17.4889L4.98009 28.0835L0.0841366 28.5981Z" fill="#F4F6FF"/>
<path d="M22.6808 26.5353C21.1221 26.6991 20.0512 26.4648 19.4679 25.8323C18.8847 25.1998 18.7893 24.1344 19.1818 22.6362C19.4622 21.566 19.8788 20.7244 20.4317 20.1112C21.003 19.4961 21.7133 19.0312 22.5625 18.7165C23.4117 18.4017 24.3934 18.1598 25.5077 17.9907L28.3348 17.5114L28.489 16.9228C28.6058 16.4769 28.5409 16.1802 28.2942 16.0327C28.0659 15.8832 27.695 15.8355 27.1816 15.8894C26.6315 15.9473 26.0033 16.0306 25.2972 16.1395C24.591 16.2484 23.9009 16.3643 23.2267 16.4872C22.5526 16.6101 21.961 16.7243 21.4518 16.8299L22.1484 13.6606C22.6945 13.4818 23.3323 13.2933 24.0618 13.0952C24.8097 12.8952 25.578 12.7191 26.3669 12.5668C27.1604 12.3967 27.8964 12.2759 28.5748 12.2046C29.8034 12.0755 30.8227 12.0985 31.6328 12.2735C32.4612 12.4466 33.0182 12.839 33.3038 13.4508C33.6076 14.0606 33.603 14.963 33.29 16.158L31.8041 21.8299C31.8171 21.9846 31.9012 22.1059 32.0566 22.1936C32.2302 22.2794 32.4224 22.3286 32.6331 22.3412L31.7586 25.373C31.3045 25.4728 30.8276 25.5576 30.3278 25.6275C29.8233 25.7152 29.4383 25.7557 29.1726 25.7489C28.6271 25.7889 28.1944 25.739 27.8744 25.5992C27.5591 25.4415 27.3422 25.2822 27.2239 25.1212C26.9162 25.2749 26.512 25.4562 26.0116 25.6649C25.5158 25.8557 24.9788 26.0336 24.4006 26.1984C23.8225 26.3633 23.2492 26.4755 22.6808 26.5353ZM24.7461 23.1441C25.0211 23.1152 25.294 23.0605 25.5648 22.98C25.8585 22.8797 26.1362 22.7725 26.398 22.6583C26.6781 22.5421 26.9008 22.4406 27.0662 22.3539L27.6409 20.16L25.584 20.5584C25.1345 20.6403 24.7694 20.8087 24.4886 21.0637C24.2309 21.299 24.0506 21.6128 23.9478 22.0052C23.845 22.3976 23.8549 22.7001 23.9775 22.9127C24.1048 23.1074 24.361 23.1846 24.7461 23.1441Z" fill="#F4F6FF"/>
<path d="M37.0982 24.7078L40.8128 10.5281L36.302 11.0022L37.3323 7.06938L51.0849 5.62391L50.0546 9.55676L45.7088 10.0135L41.9941 24.1932L37.0982 24.7078Z" fill="#F4F6FF"/>
<path d="M47.8661 23.576L51.3915 10.1187L56.0949 9.62436L55.7165 11.0691C56.0706 10.8064 56.4821 10.529 56.9509 10.2369C57.4427 9.925 57.9436 9.64688 58.4534 9.4025C58.9632 9.15812 59.4268 8.98798 59.8443 8.89207L58.7018 13.253C58.3074 13.3291 57.8623 13.4626 57.3665 13.6535C56.8707 13.8444 56.3885 14.0511 55.9201 14.2738C55.4699 14.4946 55.0703 14.6927 54.7212 14.8682L52.5695 23.0816L47.8661 23.576Z" fill="#F4F6FF"/>
<path d="M61.7362 22.4304C60.1776 22.5942 59.1066 22.3599 58.5234 21.7274C57.9401 21.0949 57.8448 20.0295 58.2373 18.5313C58.5176 17.4611 58.9342 16.6195 59.4872 16.0063C60.0585 15.3912 60.7687 14.9263 61.6179 14.6116C62.4672 14.2969 63.4489 14.0549 64.5631 13.8858L67.3902 13.4065L67.5444 12.8179C67.6612 12.372 67.5963 12.0753 67.3496 11.9278C67.1213 11.7783 66.7504 11.7306 66.237 11.7845C65.6869 11.8424 65.0588 11.9257 64.3526 12.0346C63.6465 12.1435 62.9563 12.2594 62.2822 12.3823C61.608 12.5052 61.0164 12.6194 60.5073 12.725L61.2038 9.55571C61.75 9.3769 62.3878 9.18844 63.1173 8.99036C63.8651 8.79034 64.6335 8.61418 65.4223 8.46189C66.2158 8.29177 66.9518 8.17105 67.6303 8.09974C68.8589 7.97061 69.8782 7.99356 70.6883 8.1686C71.5167 8.3417 72.0737 8.73413 72.3592 9.34588C72.6631 9.9557 72.6585 10.8581 72.3454 12.0531L70.8596 17.725C70.8725 17.8797 70.9567 18.001 71.112 18.0887C71.2857 18.1745 71.4778 18.2237 71.6886 18.2363L70.814 21.2681C70.3599 21.3679 69.883 21.4527 69.3832 21.5226C68.8788 21.6103 68.4937 21.6508 68.228 21.644C67.6826 21.684 67.2498 21.6341 66.9298 21.4943C66.6145 21.3366 66.3977 21.1773 66.2794 21.0163C65.9716 21.17 65.5675 21.3513 65.067 21.56C64.5712 21.7508 64.0342 21.9287 63.4561 22.0935C62.878 22.2584 62.3047 22.3707 61.7362 22.4304ZM63.8015 19.0392C64.0766 19.0103 64.3495 18.9556 64.6202 18.8751C64.9139 18.7748 65.1917 18.6676 65.4534 18.5534C65.7335 18.4372 65.9562 18.3357 66.1216 18.249L66.6964 16.0552L64.6394 16.4535C64.19 16.5354 63.8249 16.7039 63.5441 16.9589C63.2863 17.1941 63.106 17.5079 63.0032 17.9003C62.9004 18.2927 62.9103 18.5952 63.033 18.8078C63.1603 19.0025 63.4165 19.0797 63.8015 19.0392Z" fill="#F4F6FF"/>
<path d="M74.5033 20.7763L75.1407 7.62258L80.1741 7.09354L79.4183 16.5132L80.0234 16.4496L84.2999 6.6599L89.0584 6.15977L82.6449 19.9206L74.5033 20.7763Z" fill="#F4F6FF"/>
<path d="M92.9692 19.1477C91.3555 19.3173 90.135 19.2114 89.3077 18.83C88.485 18.4309 87.9959 17.7451 87.8405 16.7728C87.7034 15.7985 87.8382 14.5355 88.2447 12.9838C88.6699 11.3607 89.261 9.98904 90.0181 8.86877C90.7936 7.74657 91.7465 6.86589 92.8769 6.22674C94.0072 5.58759 95.3334 5.18803 96.8554 5.02806C99.0375 4.79871 100.548 5.12563 101.386 6.00881C102.243 6.89006 102.389 8.40977 101.824 10.5679L101.015 12.8384L92.6807 13.7143C92.5121 14.4259 92.537 14.9436 92.7553 15.2676C92.9782 15.5737 93.4748 15.6863 94.2449 15.6053C94.8317 15.5436 95.485 15.4663 96.2048 15.3733C96.9476 15.2605 97.6813 15.1487 98.4057 15.0379C99.1486 14.9251 99.7722 14.8249 100.277 14.7372L99.5807 17.8023C99.0805 17.9416 98.4497 18.1033 97.6882 18.2874C96.9267 18.4716 96.1332 18.6417 95.3077 18.7978C94.4822 18.954 93.7027 19.0706 92.9692 19.1477ZM93.3611 11.0151L97.2118 10.6104C97.4501 9.70071 97.4693 9.08295 97.2694 8.75707C97.0741 8.41335 96.6464 8.27618 95.9863 8.34556C95.3078 8.41687 94.7613 8.66511 94.3468 9.09026C93.9369 9.49758 93.6084 10.1392 93.3611 11.0151Z" fill="#F4F6FF"/>
</svg>
